<svg width="134" height="26" viewBox="0 0 134 26" fill="none" xmlns="http://www.w3.org/2000/svg">
<path d="M2.18522 4.02288C3.92443 3.99481 9.04675 6.85941 8.57025 7.57111C8.06517 8.33025 6.45938 9.03009 5.94476 8.8838C1.8755 7.72135 1.43235 4.29095 1.82308 4.09524C1.91838 4.04819 2.0375 4.02486 2.18522 4.02288ZM20.9567 10.5326C21.5285 13.7076 18.7024 15.8782 15.8844 16.3488C13.6068 16.7244 11.7866 15.2219 11.9152 14.8225C12.2393 13.8064 18.3451 10.8687 20.9567 10.5326ZM18.2736 17.8789C18.4118 17.8829 18.5309 17.8987 18.6214 17.9264C18.488 20.354 15.0935 22.0305 14.4216 22.0226C13.3114 22.0107 12.225 21.1369 12.2059 20.5003C12.1773 19.5909 16.6564 17.8552 18.2736 17.8789ZM2.75701 17.8789C4.38186 17.8552 8.86091 19.5909 8.83232 20.5003C8.81326 21.1369 7.72685 22.0107 6.61662 22.0226C5.94476 22.0305 2.54259 20.354 2.40917 17.9264C2.4997 17.8987 2.61883 17.8829 2.75701 17.8789Z" fill="white"/>
<path d="M19.2075 4.09405C19.1122 4.0466 18.9931 4.02288 18.8454 4.02288C17.109 3.99125 11.9915 6.85941 12.468 7.57111C12.9731 8.33025 14.5788 9.03009 15.0935 8.8838C19.1551 7.72135 19.5982 4.28779 19.2075 4.09405Z" fill="#2EC4B6"/>
<path d="M9.12298 14.8226C8.79896 13.8064 2.68553 10.8687 0.0743351 10.5326C-0.497458 13.7076 2.32816 15.8782 5.15377 16.3488C7.43142 16.7244 9.25163 15.2219 9.12298 14.8226Z" fill="#2EC4B6"/>
<path d="M41.9995 15.4151V5.45084H43.8552V15.4151C43.8552 16.3429 43.6651 17.1258 43.2849 17.7636C42.9048 18.4015 42.3797 18.888 41.7096 19.223C41.0459 19.5516 40.2824 19.7159 39.4191 19.7159C38.5557 19.7159 37.7889 19.5677 37.1189 19.2713C36.4488 18.975 35.9237 18.5239 35.5435 17.9183C35.1634 17.3126 34.9733 16.5491 34.9733 15.6278H36.8386C36.8386 16.2205 36.9481 16.707 37.1672 17.0871C37.3863 17.4673 37.6891 17.7475 38.0757 17.9279C38.4687 18.1084 38.9165 18.1986 39.4191 18.1986C39.9087 18.1986 40.3469 18.0955 40.7335 17.8893C41.1265 17.6767 41.4358 17.3642 41.6613 16.9518C41.8868 16.533 41.9995 16.0208 41.9995 15.4151ZM46.2713 14.41V14.1877C46.2713 13.4339 46.3809 12.7348 46.5999 12.0905C46.819 11.4397 47.1347 10.8759 47.5471 10.3992C47.9594 9.91592 48.4588 9.54222 49.0451 9.27805C49.6314 9.00744 50.2886 8.87213 51.0167 8.87213C51.7512 8.87213 52.4116 9.00744 52.9979 9.27805C53.5907 9.54222 54.0933 9.91592 54.5056 10.3992C54.9244 10.8759 55.2434 11.4397 55.4624 12.0905C55.6815 12.7348 55.791 13.4339 55.791 14.1877V14.41C55.791 15.1638 55.6815 15.8629 55.4624 16.5072C55.2434 17.1516 54.9244 17.7153 54.5056 18.1986C54.0933 18.6754 53.5939 19.0491 53.0076 19.3197C52.4277 19.5838 51.7705 19.7159 51.036 19.7159C50.3015 19.7159 49.6411 19.5838 49.0548 19.3197C48.4684 19.0491 47.9659 18.6754 47.5471 18.1986C47.1347 17.7153 46.819 17.1516 46.5999 16.5072C46.3809 15.8629 46.2713 15.1638 46.2713 14.41ZM48.0593 14.1877V14.41C48.0593 14.9319 48.1205 15.4248 48.2429 15.8887C48.3653 16.3462 48.549 16.7521 48.7938 17.1064C49.0451 17.4608 49.3576 17.7411 49.7313 17.9473C50.105 18.147 50.5399 18.2469 51.036 18.2469C51.5257 18.2469 51.9542 18.147 52.3214 17.9473C52.6951 17.7411 53.0044 17.4608 53.2492 17.1064C53.4941 16.7521 53.6777 16.3462 53.8001 15.8887C53.929 15.4248 53.9934 14.9319 53.9934 14.41V14.1877C53.9934 13.6723 53.929 13.1858 53.8001 12.7283C53.6777 12.2644 53.4908 11.8553 53.2396 11.5009C52.9947 11.1401 52.6855 10.8566 52.3118 10.6504C51.9445 10.4443 51.5128 10.3412 51.0167 10.3412C50.527 10.3412 50.0953 10.4443 49.7216 10.6504C49.3544 10.8566 49.0451 11.1401 48.7938 11.5009C48.549 11.8553 48.3653 12.2644 48.2429 12.7283C48.1205 13.1858 48.0593 13.6723 48.0593 14.1877ZM58.0236 4.67766H59.8212V17.493L59.6666 19.5226H58.0236V4.67766ZM66.8861 14.207V14.41C66.8861 15.1703 66.7959 15.8758 66.6155 16.5266C66.4351 17.1709 66.1709 17.7314 65.823 18.2082C65.4751 18.685 65.0498 19.0555 64.5472 19.3197C64.0447 19.5838 63.468 19.7159 62.8173 19.7159C62.1536 19.7159 61.5705 19.6032 61.068 19.3777C60.5718 19.1457 60.153 18.8139 59.8116 18.3822C59.4701 17.9505 59.1962 17.4286 58.9901 16.8165C58.7903 16.2044 58.6518 15.515 58.5745 14.7483V13.8591C58.6518 13.0859 58.7903 12.3933 58.9901 11.7812C59.1962 11.1691 59.4701 10.6472 59.8116 10.2155C60.153 9.77739 60.5718 9.44557 61.068 9.22006C61.5641 8.98811 62.1407 8.87213 62.7979 8.87213C63.4551 8.87213 64.0382 9.001 64.5472 9.25872C65.0563 9.51 65.4815 9.87082 65.823 10.3412C66.1709 10.8115 66.4351 11.3753 66.6155 12.0325C66.7959 12.6832 66.8861 13.4081 66.8861 14.207ZM65.0885 14.41V14.207C65.0885 13.6851 65.0401 13.1955 64.9435 12.738C64.8469 12.2741 64.6922 11.8682 64.4796 11.5203C64.267 11.1659 63.9867 10.8888 63.6388 10.6891C63.2908 10.4829 62.8624 10.3798 62.3534 10.3798C61.9023 10.3798 61.5093 10.4571 61.1743 10.6118C60.8457 10.7664 60.5654 10.9758 60.3334 11.24C60.1015 11.4977 59.9114 11.7941 59.7632 12.1291C59.6215 12.4577 59.5152 12.7992 59.4443 13.1536V15.4828C59.5474 15.9338 59.7149 16.3687 59.9469 16.7875C60.1853 17.1999 60.501 17.5381 60.894 17.8023C61.2935 18.0665 61.7864 18.1986 62.3727 18.1986C62.8559 18.1986 63.2683 18.1019 63.6098 17.9086C63.9577 17.7089 64.238 17.435 64.4506 17.0871C64.6697 16.7392 64.8307 16.3365 64.9338 15.879C65.0369 15.4216 65.0885 14.9319 65.0885 14.41ZM69.1766 18.5755C69.1766 18.2727 69.2701 18.0182 69.4569 17.812C69.6502 17.5993 69.9273 17.493 70.2881 17.493C70.6489 17.493 70.9227 17.5993 71.1096 17.812C71.3029 18.0182 71.3995 18.2727 71.3995 18.5755C71.3995 18.8719 71.3029 19.1231 71.1096 19.3293C70.9227 19.5355 70.6489 19.6386 70.2881 19.6386C69.9273 19.6386 69.6502 19.5355 69.4569 19.3293C69.2701 19.1231 69.1766 18.8719 69.1766 18.5755Z" fill="white"/>
<path d="M78.2374 20.9282C77.6847 20.9282 77.2883 20.7721 77.048 20.4597C76.8077 20.1473 76.6876 19.6908 76.6876 19.0901C76.6876 18.5375 76.7897 17.8167 76.9939 16.9276C77.2102 16.0266 77.4925 15.0234 77.8409 13.9182C78.2013 12.8009 78.6038 11.6536 79.0483 10.4762C79.4928 9.28683 79.9554 8.12149 80.4359 6.98018C80.9165 5.82685 81.385 4.76963 81.8415 3.80853C82.0578 3.38804 82.286 3.09971 82.5263 2.94353C82.7666 2.78735 83.0309 2.70926 83.3192 2.70926C83.5956 2.70926 83.8298 2.78735 84.022 2.94353C84.2143 3.0877 84.3104 3.32197 84.3104 3.64634C84.3104 3.71842 84.2143 3.99474 84.022 4.47529C83.8298 4.94383 83.5775 5.55654 83.2652 6.31341C82.9528 7.05827 82.6104 7.89924 82.238 8.83632C81.8656 9.76138 81.4931 10.7285 81.1207 11.7377C80.7483 12.7348 80.4119 13.7199 80.1115 14.6931C79.8112 15.6662 79.5709 16.5672 79.3907 17.3962C79.8112 16.8315 80.2617 16.2068 80.7423 15.522C81.2348 14.8252 81.7334 14.1344 82.238 13.4496C82.7546 12.7528 83.2592 12.1161 83.7517 11.5394C84.2563 10.9628 84.7249 10.5002 85.1573 10.1518C85.5898 9.80343 85.9683 9.62923 86.2927 9.62923C86.8933 9.62923 87.3739 9.79742 87.7343 10.1338C88.1067 10.4582 88.293 11.0228 88.293 11.8278C88.293 12.2002 88.2209 12.6507 88.0767 13.1793C87.9325 13.6959 87.7583 14.2425 87.5541 14.8192C87.3619 15.3839 87.1937 15.9305 87.0495 16.4591C86.9054 16.9877 86.8333 17.4502 86.8333 17.8467C86.8333 18.0629 86.9354 18.1711 87.1396 18.1711C87.7283 18.1711 88.323 18.0449 88.9237 17.7926C89.5364 17.5403 90.1191 17.228 90.6717 16.8556C91.2363 16.4711 91.7469 16.0927 92.2035 15.7202C92.672 15.3358 93.0504 15.0174 93.3388 14.7651C93.543 14.5729 93.7292 14.4468 93.8974 14.3867C94.0656 14.3146 94.2218 14.2786 94.366 14.2786C94.8585 14.2786 95.1048 14.5249 95.1048 15.0174C95.1048 15.1135 95.0868 15.2337 95.0507 15.3778C95.0147 15.51 94.9006 15.6782 94.7083 15.8824C94.5161 16.0867 94.2278 16.375 93.8434 16.7474C93.4589 17.1199 93.0084 17.5163 92.4918 17.9368C91.9872 18.3573 91.4346 18.7597 90.8339 19.1442C90.2452 19.5166 89.6385 19.823 89.0138 20.0632C88.3891 20.3035 87.7824 20.4237 87.1937 20.4237C86.3047 20.4237 85.6199 20.1714 85.1393 19.6668C84.6588 19.1742 84.4185 18.5014 84.4185 17.6485C84.4185 17.0598 84.5386 16.3209 84.7789 15.4319C85.0192 14.5309 85.2895 13.6118 85.5898 12.6747C85.1694 13.0832 84.7309 13.5698 84.2743 14.1344C83.8178 14.6871 83.3553 15.2757 82.8867 15.9005C82.4182 16.5132 81.9557 17.1199 81.4991 17.7205C81.0546 18.3092 80.6281 18.8498 80.2197 19.3424C79.8112 19.823 79.4388 20.2074 79.1024 20.4957C78.766 20.7841 78.4777 20.9282 78.2374 20.9282ZM100.255 20.3336C99.979 20.3336 99.7268 20.2194 99.4985 19.9912C99.2822 19.7749 99.1741 19.4085 99.1741 18.8919C99.1741 18.5075 99.2041 17.9728 99.2642 17.288C99.3363 16.5912 99.4685 15.6962 99.6607 14.603C99.2402 15.468 98.8017 16.2368 98.3452 16.9096C97.8886 17.5824 97.4381 18.111 96.9936 18.4954C96.5611 18.8679 96.1466 19.0541 95.7502 19.0541C95.1134 19.0541 94.6089 18.8619 94.2364 18.4774C93.864 18.081 93.6778 17.3421 93.6778 16.2609C93.6778 15.7443 93.7198 15.1616 93.8039 14.5129C93.9 13.8641 94.0202 13.2154 94.1643 12.5666C94.3085 11.9179 94.4527 11.3412 94.5968 10.8366C94.753 10.32 94.8912 9.93558 95.0113 9.68329C95.1074 9.46704 95.2276 9.29885 95.3717 9.17871C95.5279 9.05857 95.7261 8.9985 95.9664 8.9985C96.3509 8.9985 96.6452 9.12465 96.8494 9.37694C97.0537 9.62923 97.1558 9.88753 97.1558 10.1518C97.1558 10.3561 97.1077 10.6504 97.0116 11.0348C96.9275 11.4193 96.8194 11.8458 96.6873 12.3143C96.5671 12.7829 96.441 13.2634 96.3088 13.756C96.1767 14.2485 96.0625 14.7111 95.9664 15.1436C95.8823 15.5761 95.8403 15.9425 95.8403 16.2428C95.8403 16.6153 95.9844 16.8015 96.2728 16.8015C96.441 16.8015 96.6572 16.6393 96.9215 16.3149C97.1978 15.9906 97.4862 15.5581 97.7865 15.0174C98.0989 14.4648 98.4112 13.8641 98.7236 13.2154C99.048 12.5546 99.3423 11.8878 99.6066 11.2151C99.8829 10.5303 100.117 9.89954 100.309 9.32288C100.43 8.96246 100.592 8.71017 100.796 8.566C101 8.42184 101.234 8.34976 101.499 8.34976C101.907 8.34976 102.22 8.46389 102.436 8.69215C102.664 8.92041 102.778 9.24479 102.778 9.66527C102.778 9.85749 102.748 10.1819 102.688 10.6384C102.628 11.0949 102.55 11.6295 102.454 12.2422C102.37 12.8549 102.268 13.5037 102.148 14.1885C102.027 14.8733 101.907 15.546 101.787 16.2068C101.679 16.8676 101.571 17.4743 101.463 18.0269C101.355 18.5675 101.265 19 101.192 19.3244C101.072 19.8049 100.928 20.0933 100.76 20.1894C100.592 20.2855 100.424 20.3336 100.255 20.3336ZM106.832 19.5226C106.543 19.5226 106.255 19.4265 105.967 19.2343C105.69 19.0301 105.462 18.7417 105.282 18.3693C105.102 17.9849 105.011 17.5223 105.011 16.9817C105.011 16.2609 105.108 15.492 105.3 14.675C105.504 13.8581 105.75 13.0412 106.039 12.2242C106.327 11.4073 106.609 10.6384 106.886 9.91756C107.018 9.56916 107.18 9.33489 107.372 9.21475C107.564 9.0826 107.817 9.01652 108.129 9.01652C108.838 9.01652 109.192 9.37093 109.192 10.0797C109.192 10.1999 109.138 10.4342 109.03 10.7826C108.922 11.1189 108.778 11.5334 108.598 12.026C108.429 12.5186 108.249 13.0532 108.057 13.6298C107.877 14.1945 107.709 14.7712 107.552 15.3598C107.408 15.9365 107.294 16.4831 107.21 16.9997C107.486 16.5792 107.793 16.0566 108.129 15.4319C108.477 14.7952 108.844 14.1284 109.228 13.4316C109.625 12.7348 110.021 12.0861 110.418 11.4854C110.814 10.8727 111.205 10.3741 111.589 9.98964C111.973 9.6052 112.34 9.41298 112.688 9.41298C112.989 9.41298 113.271 9.47305 113.535 9.59319C113.812 9.70131 114.052 9.91756 114.256 10.2419C114.46 10.5543 114.616 11.0048 114.725 11.5935C114.845 12.1822 114.905 12.9571 114.905 13.9182C114.905 14.3987 114.947 14.8673 115.031 15.3238C115.127 15.7683 115.283 16.1407 115.5 16.4411C115.716 16.7294 116.022 16.8736 116.419 16.8736C117.103 16.8736 117.716 16.7474 118.257 16.4951C118.797 16.2428 119.272 15.9485 119.68 15.6121C120.089 15.2757 120.431 14.9814 120.708 14.7291C120.876 14.5609 121.02 14.4288 121.14 14.3326C121.272 14.2365 121.38 14.1885 121.464 14.1885C121.717 14.1885 121.897 14.2546 122.005 14.3867C122.125 14.5189 122.185 14.6991 122.185 14.9273C122.185 15.0475 122.083 15.2697 121.879 15.5941C121.675 15.9185 121.386 16.2909 121.014 16.7114C120.653 17.1199 120.239 17.5163 119.77 17.9008C119.302 18.2852 118.797 18.6036 118.257 18.8559C117.716 19.1081 117.163 19.2343 116.599 19.2343C115.65 19.2343 114.863 19.0661 114.238 18.7297C113.625 18.3813 113.169 17.8046 112.868 16.9997C112.568 16.1828 112.418 15.0715 112.418 13.6659C112.418 13.6298 112.418 13.5698 112.418 13.4857C112.418 13.1132 112.412 12.7829 112.4 12.4945C112.4 12.2062 112.382 11.9719 112.346 11.7917C112.142 12.1641 111.895 12.6087 111.607 13.1253C111.331 13.6418 111.03 14.1945 110.706 14.7832C110.382 15.3598 110.045 15.9305 109.697 16.4951C109.348 17.0478 109 17.5524 108.652 18.0089C108.315 18.4654 107.991 18.8318 107.678 19.1081C107.366 19.3845 107.084 19.5226 106.832 19.5226ZM133.815 10.4402C133.815 10.5843 133.767 10.7105 133.671 10.8186C133.575 10.9267 133.454 11.0108 133.31 11.0709C133.106 11.155 132.752 11.2631 132.247 11.3953C131.742 11.5274 131.13 11.6776 130.409 11.8458C129.7 12.014 128.937 12.1882 128.12 12.3684C127.303 12.5366 126.486 12.6988 125.669 12.8549C125.357 14.0083 125.039 15.1976 124.714 16.4231C124.39 17.6364 124.066 18.8318 123.741 20.0092C123.621 20.4297 123.477 20.748 123.309 20.9643C123.14 21.1925 122.852 21.3067 122.444 21.3067C121.999 21.3067 121.699 21.1625 121.543 20.8742C121.398 20.5979 121.38 20.2194 121.489 19.7389C121.801 18.4294 122.089 17.21 122.354 16.0807C122.63 14.9514 122.852 14.0383 123.02 13.3415C122.3 13.4616 121.669 13.5578 121.128 13.6298C120.588 13.6899 120.203 13.7139 119.975 13.7019C119.723 13.6779 119.512 13.5758 119.344 13.3956C119.176 13.2154 119.098 12.9931 119.11 12.7288C119.134 12.4885 119.242 12.2843 119.434 12.1161C119.626 11.9359 119.855 11.8278 120.119 11.7917C120.491 11.7557 120.972 11.7016 121.561 11.6295C122.149 11.5574 122.798 11.4734 123.507 11.3772C123.663 10.7645 123.843 10.1338 124.048 9.48506C124.252 8.8243 124.462 8.19358 124.678 7.59288C124.907 6.98018 125.123 6.44556 125.327 5.98904C125.531 5.53251 125.717 5.20213 125.886 4.9979C126.018 4.84172 126.18 4.72158 126.372 4.63748C126.576 4.55338 126.775 4.51134 126.967 4.51134C127.219 4.51134 127.423 4.60144 127.58 4.78165C127.736 4.96185 127.814 5.1721 127.814 5.41237C127.814 5.50848 127.808 5.6106 127.796 5.71873C127.784 5.81484 127.76 5.91095 127.724 6.00706C127.496 6.60775 127.249 7.33459 126.985 8.18757C126.733 9.04055 126.468 9.97763 126.192 10.9988C127.093 10.8667 127.976 10.7345 128.841 10.6023C129.718 10.4582 130.511 10.326 131.22 10.2059C131.941 10.0737 132.517 9.95961 132.95 9.8635C133.19 9.7794 133.394 9.79742 133.562 9.91756C133.731 10.0257 133.815 10.1999 133.815 10.4402Z" fill="#2EC4B6"/>
</svg>
